<?xml version="1.0" encoding="UTF-8" standalone="no"?>
<!-- Created with Inkscape (http://www.inkscape.org/) -->

<svg
   xmlns:dc="http://purl.org/dc/elements/1.1/"
   xmlns:cc="http://creativecommons.org/ns#"
   xmlns:rdf="http://www.w3.org/1999/02/22-rdf-syntax-ns#"
   xmlns:svg="http://www.w3.org/2000/svg"
   xmlns="http://www.w3.org/2000/svg"
   xmlns:sodipodi="http://sodipodi.sourceforge.net/DTD/sodipodi-0.dtd"
   xmlns:inkscape="http://www.inkscape.org/namespaces/inkscape"
   id="svg6247"
   version="1.1"
   inkscape:version="0.48.4 r9939"
   width="456"
   height="471"
   sodipodi:docname="2013-08-05-161307_456x471_scrot.png"
   inkscape:export-filename="/home/epeli/code/opinsys-leapmotion/icon.png"
   inkscape:export-xdpi="122.29299"
   inkscape:export-ydpi="122.29299">
  <metadata
     id="metadata6253">
    <rdf:RDF>
      <cc:Work
         rdf:about="">
        <dc:format>image/svg+xml</dc:format>
        <dc:type
           rdf:resource="http://purl.org/dc/dcmitype/StillImage" />
        <dc:title></dc:title>
      </cc:Work>
    </rdf:RDF>
  </metadata>
  <defs
     id="defs6251" />
  <sodipodi:namedview
     pagecolor="#ffffff"
     bordercolor="#666666"
     borderopacity="1"
     objecttolerance="10"
     gridtolerance="10"
     guidetolerance="10"
     inkscape:pageopacity="0"
     inkscape:pageshadow="2"
     inkscape:window-width="1920"
     inkscape:window-height="1028"
     id="namedview6249"
     showgrid="false"
     inkscape:snap-bbox="true"
     inkscape:zoom="1.0276008"
     inkscape:cx="17.844567"
     inkscape:cy="297.24456"
     inkscape:window-x="0"
     inkscape:window-y="0"
     inkscape:window-maximized="1"
     inkscape:current-layer="svg6247" />
  <g
     id="g6531"
     transform="matrix(1.293492,0,0,1.293492,-50.021616,-69.117365)">
    <path
       sodipodi:nodetypes="ssscssssssscsssssscsssssssssssssssssscsscsscsssssssssssssscsssscccs"
       inkscape:connector-curvature="0"
       id="path6257-4-4-9"
       d="m 389.3144,219.54261 c -1.20688,-3.46929 -3.29143,-5.70924 -6.78391,-7.28968 -1.342,-0.60729 -3.53788,-0.71873 -17.63444,-0.89493 l -16.10158,-0.20128 -2.0127,-1.39107 c -2.71727,-1.87806 -6.80954,-6.11364 -11.93053,-12.34836 -5.77261,-7.02806 -7.25675,-9.2958 -11.38693,-17.39887 -7.16064,-14.04861 -11.20666,-17.42902 -20.14634,-16.8321 -7.45453,0.49776 -13.36923,2.84416 -18.10259,7.18143 -3.23075,2.9604 -5.52169,7.22125 -6.27259,11.66622 -0.64248,3.80322 -0.28111,10.93205 0.73556,14.5101 l 0.76619,2.69656 -19.96656,0.13083 c -19.35579,0.12684 -20.04749,0.15808 -22.6121,1.02102 -7.10156,2.3895 -13.57832,8.94844 -15.78029,15.98054 -1.24292,3.96933 -1.24292,10.15297 0,14.1223 1.62092,5.1765 5.18523,9.81221 10.04212,13.06069 5.09653,3.40878 6.70809,3.7487 18.66438,3.93692 l 10.28068,0.16184 0.65276,3.15682 c 0.35902,1.73625 1.12362,4.2116 1.69913,5.50078 0.89828,2.01228 1.06622,3.02755 1.18674,7.17444 0.16644,5.72715 1.30004,9.7677 3.87254,13.80316 1.25153,1.96328 1.61411,2.92735 1.61411,4.29188 0,0.96791 0.25652,3.10055 0.57005,4.7392 2.8834,15.07017 15.99895,23.21672 34.24959,21.2737 6.83553,-0.72775 12.77911,-2.19928 23.95109,-5.92987 17.94383,-5.9919 14.80677,-5.4745 34.81965,-5.74284 16.60086,-0.22259 17.38576,-0.26749 19.18065,-1.0972 2.39219,-1.10584 5.01343,-3.7271 6.11926,-6.11927 0.86006,-1.86052 0.86567,-2.06234 0.9574,-34.47715 0.0862,-30.4825 0.0452,-32.74113 -0.63134,-34.68581 z m -38.23502,64.27244 c -4.88559,0 -10.04353,1.19622 -22.00933,5.10434 -18.68736,6.10344 -22.33591,6.97397 -29.18409,6.96323 -8.64377,-0.0135 -13.74591,-2.6253 -16.46127,-8.42636 -0.93534,-1.99821 -1.05313,-2.77302 -1.12328,-7.3881 l -0.0784,-5.15579 -1.67303,-1.62363 c -0.92016,-0.89299 -2.14953,-2.64859 -2.73193,-3.90134 -0.91791,-1.97442 -1.06019,-2.81376 -1.06853,-6.30312 -0.007,-2.97133 0.16109,-4.33366 0.64228,-5.20264 0.64335,-1.16187 0.62929,-1.20792 -1.07485,-3.52285 -2.12328,-2.88426 -3.05457,-5.5756 -3.07236,-8.87877 -0.0161,-3.00142 0.59109,-5.50425 1.91844,-7.90705 0.53518,-0.96881 0.97307,-1.82191 0.97307,-1.89576 0,-0.0738 -7.74384,-0.1869 -17.20855,-0.25121 -16.97879,-0.11537 -17.23124,-0.12905 -18.90815,-1.0251 -4.09818,-2.18988 -6.51282,-5.69535 -6.85443,-9.95094 -0.30744,-3.83005 0.66464,-6.28132 3.68784,-9.29949 4.02405,-4.01734 1.97684,-3.79247 34.52453,-3.79247 26.66917,0 28.10605,-0.0367 28.10605,-0.71581 0,-0.99135 -2.36177,-5.81121 -4.35469,-8.88699 -0.91171,-1.4071 -2.24574,-4.03368 -2.9645,-5.83683 -1.21629,-3.05129 -1.30782,-3.61527 -1.32113,-8.13951 -0.0139,-4.72187 0.0207,-4.91783 1.20779,-6.84317 0.82613,-1.33991 1.93291,-2.40834 3.41607,-3.29769 2.69567,-1.61642 4.20928,-2.07394 7.86504,-2.37733 l 2.84225,-0.23588 1.42658,1.66664 c 0.78463,0.91666 3.03791,4.78459 5.00729,8.59539 5.47862,10.60137 9.0211,15.57389 18.81487,26.41019 7.72895,8.55172 13.17661,11.73716 20.07256,11.73716 l 2.33066,0 0,30.19044 0,30.19044 z"
       style="fill:#cccccc" />
    <path
       sodipodi:nodetypes="ssscssssssscsssssscsssssssssssssssssscsscsscsssssssssssssscsssscccs"
       inkscape:connector-curvature="0"
       id="path6257-4-4"
       d="m 208.05975,219.54261 c -1.20688,-3.46929 -3.29143,-5.70924 -6.78391,-7.28968 -1.342,-0.60729 -3.53788,-0.71873 -17.63444,-0.89493 l -16.10158,-0.20128 -2.0127,-1.39107 c -2.71727,-1.87806 -6.80954,-6.11364 -11.93053,-12.34836 -5.77261,-7.02806 -7.25675,-9.2958 -11.38693,-17.39887 -7.16064,-14.04861 -11.20666,-17.42902 -20.14634,-16.8321 -7.45453,0.49776 -13.36923,2.84416 -18.10259,7.18143 -3.23075,2.9604 -5.521692,7.22125 -6.272592,11.66622 -0.64248,3.80322 -0.28111,10.93205 0.73556,14.5101 l 0.76619,2.69656 -19.96656,0.13083 c -19.35579,0.12684 -20.04749,0.15808 -22.6121,1.02102 -7.10156,2.3895 -13.57832,8.94844 -15.78029,15.98054 -1.24292,3.96933 -1.24292,10.15297 0,14.1223 1.62092,5.1765 5.18523,9.81221 10.04212,13.06069 5.09653,3.40878 6.70809,3.7487 18.66438,3.93692 l 10.28068,0.16184 0.65276,3.15682 c 0.35902,1.73625 1.12362,4.2116 1.69913,5.50078 0.89828,2.01228 1.06622,3.02755 1.18674,7.17444 0.16644,5.72715 1.30004,9.7677 3.87254,13.80316 1.25153,1.96328 1.61411,2.92735 1.61411,4.29188 0,0.96791 0.25652,3.10055 0.57005,4.7392 2.8834,15.07017 15.998952,23.21672 34.249592,21.2737 6.83553,-0.72775 12.77911,-2.19928 23.95109,-5.92987 17.94383,-5.9919 14.80677,-5.4745 34.81965,-5.74284 16.60086,-0.22259 17.38576,-0.26749 19.18065,-1.0972 2.39219,-1.10584 5.01343,-3.7271 6.11926,-6.11927 0.86006,-1.86052 0.86567,-2.06234 0.9574,-34.47715 0.0862,-30.4825 0.0452,-32.74113 -0.63134,-34.68581 z m -38.23502,64.27244 c -4.88559,0 -10.04353,1.19622 -22.00933,5.10434 -18.68736,6.10344 -22.33591,6.97397 -29.18409,6.96323 -8.64377,-0.0135 -13.74591,-2.6253 -16.46127,-8.42636 -0.93534,-1.99821 -1.05313,-2.77302 -1.12328,-7.3881 l -0.0784,-5.15579 -1.673031,-1.62363 c -0.92016,-0.89299 -2.14953,-2.64859 -2.73193,-3.90134 -0.91791,-1.97442 -1.06019,-2.81376 -1.06853,-6.30312 -0.007,-2.97133 0.16109,-4.33366 0.64228,-5.20264 0.64335,-1.16187 0.62929,-1.20792 -1.07485,-3.52285 -2.12328,-2.88426 -3.05457,-5.5756 -3.07236,-8.87877 -0.0161,-3.00142 0.59109,-5.50425 1.91844,-7.90705 0.53518,-0.96881 0.97307,-1.82191 0.97307,-1.89576 0,-0.0738 -7.74384,-0.1869 -17.20855,-0.25121 -16.97879,-0.11537 -17.23124,-0.12905 -18.90815,-1.0251 -4.09818,-2.18988 -6.51282,-5.69535 -6.85443,-9.95094 -0.30744,-3.83005 0.66464,-6.28132 3.68784,-9.29949 4.02405,-4.01734 1.97684,-3.79247 34.52453,-3.79247 26.669171,0 28.106051,-0.0367 28.106051,-0.71581 0,-0.99135 -2.36177,-5.81121 -4.35469,-8.88699 -0.91171,-1.4071 -2.24574,-4.03368 -2.9645,-5.83683 -1.21629,-3.05129 -1.30782,-3.61527 -1.32113,-8.13951 -0.0139,-4.72187 0.0207,-4.91783 1.20779,-6.84317 0.82613,-1.33991 1.93291,-2.40834 3.41607,-3.29769 2.69567,-1.61642 4.20928,-2.07394 7.86504,-2.37733 l 2.84225,-0.23588 1.42658,1.66664 c 0.78463,0.91666 3.03791,4.78459 5.00729,8.59539 5.47862,10.60137 9.0211,15.57389 18.81487,26.41019 7.72895,8.55172 13.17661,11.73716 20.07256,11.73716 l 2.33066,0 0,30.19044 0,30.19044 z"
       style="fill:#000000" />
  </g>
</svg>
