<?xml version="1.0" encoding="UTF-8" standalone="no"?>
<!-- Created with Inkscape (http://www.inkscape.org/) -->

<svg
   xmlns:dc="http://purl.org/dc/elements/1.1/"
   xmlns:cc="http://creativecommons.org/ns#"
   xmlns:rdf="http://www.w3.org/1999/02/22-rdf-syntax-ns#"
   xmlns:svg="http://www.w3.org/2000/svg"
   xmlns="http://www.w3.org/2000/svg"
   xmlns:sodipodi="http://sodipodi.sourceforge.net/DTD/sodipodi-0.dtd"
   xmlns:inkscape="http://www.inkscape.org/namespaces/inkscape"
   id="svg3039"
   version="1.1"
   inkscape:version="0.48.4 r9939"
   width="500"
   height="500"
   sodipodi:docname="icon.svg">
  <metadata
     id="metadata3045">
    <rdf:RDF>
      <cc:Work
         rdf:about="">
        <dc:format>image/svg+xml</dc:format>
        <dc:type
           rdf:resource="http://purl.org/dc/dcmitype/StillImage" />
        <dc:title></dc:title>
      </cc:Work>
    </rdf:RDF>
  </metadata>
  <defs
     id="defs3043">
    <inkscape:perspective
       sodipodi:type="inkscape:persp3d"
       inkscape:vp_x="-936.39783 : 345.72538 : 1"
       inkscape:vp_y="0 : 1392.9297 : 0"
       inkscape:vp_z="-190.1714 : 345.72538 : 1"
       inkscape:persp3d-origin="-563.28461 : 249.38107 : 1"
       id="perspective3053" />
  </defs>
  <sodipodi:namedview
     pagecolor="#ffffff"
     bordercolor="#666666"
     borderopacity="1"
     objecttolerance="10"
     gridtolerance="10"
     guidetolerance="10"
     inkscape:pageopacity="0"
     inkscape:pageshadow="2"
     inkscape:window-width="1916"
     inkscape:window-height="1163"
     id="namedview3041"
     showgrid="false"
     inkscape:zoom="0.41489277"
     inkscape:cx="-118.25765"
     inkscape:cy="423.18639"
     inkscape:window-x="1920"
     inkscape:window-y="33"
     inkscape:window-maximized="0"
     inkscape:current-layer="svg3039" />
  <g
     id="g4305"
     transform="translate(4.4400545,47.812361)">
    <g
       transform="translate(53.532278,-45.24257)"
       id="g4301">
      <path
         style="fill:#ffffff;fill-opacity:1;fill-rule:nonzero;stroke:#000000;stroke-width:0.04427398;stroke-linecap:butt;stroke-linejoin:miter;stroke-miterlimit:4;stroke-opacity:1;stroke-dasharray:none"
         d="m 403.44169,125.09276 c -0.49994,-7.39626 -3.34009,-15.64815 -10.37671,-19.17829 -5.394,-2.43368 -11.64081,-1.84668 -17.28388,-0.68114 -7.93988,2.09503 -14.72097,6.87856 -21.95607,10.51507 -1.39167,0.65599 -2.81191,1.29808 -4.29968,1.66027 -0.29558,-28.386922 -0.4731,-56.775068 -0.50021,-85.163552 -2.85225,-5.826235 -7.53636,-11.495756 -13.96333,-13.441835 -3.3068,-0.388519 -6.69913,-0.301079 -10.00422,-0.138356 -5.6554,2.420119 -11.00557,6.788995 -12.89905,12.813912 -1.08363,7.737817 -0.60094,15.624604 -0.88064,23.424588 -0.10525,8.978982 -0.14885,17.959157 -0.322,26.937066 -4.17377,-2.105173 -8.70965,-3.71205 -13.46312,-3.341839 -5.19744,-0.487625 -10.21642,1.525765 -14.29173,4.628055 -1.38792,0.798637 -2.65815,2.967919 -4.25864,1.448979 -3.84583,-1.520403 -8.16407,-1.020315 -12.21792,-0.989783 -5.62378,0.450983 -10.25067,4.277803 -14.04847,8.184303 -7.58302,0.20556 -16.27981,-0.90865 -22.57334,4.2784 -6.86938,5.272152 -10.01804,14.261932 -9.16417,22.731522 0.15559,8.13625 1.28533,16.24156 3.84509,23.9803 4.15389,14.1891 9.4508,28.12488 12.77966,42.45342 1.56779,11.16096 1.03289,22.54182 1.23457,33.80148 0.0872,6.73093 -0.16285,13.52831 0.1386,20.21762 1.08934,1.65927 3.71562,0.41835 5.43806,0.77551 28.60826,-0.22694 57.21619,-0.49423 85.82356,-0.81441 2.06634,-0.73919 0.74458,-3.54737 1.1175,-5.21496 0.14828,-13.73376 -0.32731,-27.48827 0.34057,-41.20886 0.53421,-7.78109 5.41113,-14.2691 10.75985,-19.59336 8.61021,-8.66778 17.89317,-16.80275 27.89474,-23.87177 9.7735,-6.60739 20.87804,-11.12051 30.61975,-17.82582 1.51435,-1.16863 3.4985,-2.52511 2.64743,-4.74172 -0.0454,-0.54827 -0.0908,-1.09653 -0.1362,-1.6448 z"
         id="path3073-34"
         inkscape:connector-curvature="0" />
      <path
         style="fill:#fbe2cf;fill-opacity:1;stroke-width:2;stroke-miterlimit:4;stroke-dasharray:none"
         d="m 204.20471,111.00084 c 1.93047,-14.762182 9.44211,-26.457352 20.50807,-31.929804 5.86307,-2.899457 9.4894,-3.865574 16.20616,-4.31758 4.68715,-0.315426 5.6791,-0.572574 7.80684,-2.023801 6.38687,-4.356166 14.97817,-6.784977 23.34926,-6.600983 4.39111,0.09652 5.36505,-0.08502 9.33976,-1.740896 2.44059,-1.016759 6.21781,-2.14875 8.39382,-2.515535 l 3.95639,-0.666878 0.30862,-15.506054 c 0.29707,-14.9257 0.36433,-15.661215 1.79689,-19.651568 0.81855,-2.280028 2.33287,-5.549872 3.36517,-7.266318 2.80362,-4.661701 10.22727,-11.429994 15.23011,-13.885607 10.57525,-5.190789 23.06369,-4.871011 33.27568,0.852054 4.91301,2.753382 12.34446,10.622077 14.81323,15.684798 3.64561,7.476063 3.83832,9.518083 3.83832,40.670473 0,15.24521 0.10709,27.718557 0.23797,27.718557 0.13089,0 2.48353,-0.56201 5.22809,-1.24891 7.55632,-1.89117 18.55815,-1.76127 24.77207,0.29248 12.91688,4.26916 21.36083,15.681082 23.48886,31.745022 1.2988,9.8044 -0.40475,16.10869 -5.8538,21.66296 -3.801,3.87439 -9.15729,7.26627 -21.02625,13.31491 -11.01716,5.61453 -16.03389,9.06199 -27.89479,19.16906 -7.98344,6.80297 -12.18886,11.088 -15.3787,15.66983 l -1.3772,1.9782 -0.2826,24.30354 -0.2826,24.30354 -1.55425,2.9484 c -1.9739,3.74449 -4.75243,6.52302 -8.49692,8.49692 l -2.9484,1.55425 -50.02008,0 -50.02007,0 -2.9484,-1.55425 c -3.74449,-1.9739 -6.52302,-4.75243 -8.49692,-8.49692 l -1.55425,-2.9484 -0.31814,-25.99914 -0.31814,-25.99913 -2.04387,-7.06498 c -1.12413,-3.88575 -3.73564,-11.89744 -5.80336,-17.80376 -8.10681,-23.1567 -11.03162,-39.87658 -9.29657,-53.14448 z m 19.40288,24.10958 c 0.76761,3.30407 4.0995,14.18587 7.4042,24.18177 6.89738,20.86288 8.07484,25.58006 8.58283,34.38476 l 0.36685,45.3023 45.12942,-0.34057 45.12943,-0.34057 0.008,-41.79517 c 10e-4,-4.67251 1.32309,-10.03863 3.41338,-13.96041 3.28299,-6.15955 13.49084,-16.39716 27.94678,-28.02829 7.76738,-6.24957 13.37743,-9.78005 25.18857,-15.85151 5.94629,-3.05666 11.96498,-6.57295 13.37486,-7.81398 l 2.56342,-2.25641 -0.3375,-4.26626 c -0.75477,-9.54083 -5.12811,-16.43088 -11.64291,-18.343 -3.78268,-1.11022 -8.72289,-1.13713 -13.73579,-0.0748 -4.15439,0.88039 -11.92546,4.30277 -15.7912,6.95445 -3.28101,2.25058 -8.80732,4.9876 -11.05104,5.47327 l -1.82321,0.39463 -0.15499,-43.138289 -0.15498,-43.138303 -1.31185,-2.458278 c -1.90386,-3.567658 -5.57057,-7.313443 -8.83903,-9.029641 -2.42621,-1.273952 -3.56118,-1.496962 -7.65288,-1.503716 -3.91065,-0.0064 -5.30561,0.238988 -7.50012,1.319631 -3.44578,1.6968 -7.27927,5.530299 -8.97608,8.976077 -1.32583,2.692445 -1.32776,2.728997 -1.49062,28.26966 l -0.16308,25.573722 -2.68706,-1.361637 c -9.40752,-4.76715 -18.87984,-3.961245 -26.46148,2.251342 l -2.42413,1.98639 -1.85435,-1.01264 c -1.44913,-0.79135 -3.15119,-1.01263 -7.78893,-1.01263 -5.34898,0 -6.28302,0.16092 -9.46565,1.63084 -2.14512,0.99073 -4.47216,2.65181 -5.92877,4.23204 l -2.39769,2.60119 -5.45461,-0.18727 c -9.36803,-0.32163 -15.18496,1.57651 -19.63881,6.40836 -2.65664,2.882112 -4.8122,7.220442 -5.68092,11.433532 -0.96621,4.68584 -0.27334,17.76894 1.29957,24.53941 z"
         id="path3049-2"
         inkscape:connector-curvature="0"
         sodipodi:nodetypes="ssssssscssssssssssssssscccsscccsscccsssssscccssssscssssscccsssssscsscsssscssss" />
    </g>
    <g
       transform="translate(40.439786,-44.244207)"
       id="g4293">
      <path
         style="fill:#ffffff;fill-opacity:1;fill-rule:nonzero;stroke:#000000;stroke-width:0.04427398;stroke-linecap:butt;stroke-linejoin:miter;stroke-miterlimit:4;stroke-opacity:1;stroke-dasharray:none"
         d="m 286.91901,123.13399 c -4.38888,-5.97433 -11.2118,-11.41565 -19.04407,-10.62105 -5.85783,0.839 -10.81531,4.68486 -14.95295,8.69517 -5.57761,6.0267 -8.73525,13.70098 -12.89128,20.65069 -0.82273,1.30006 -1.67704,2.60372 -2.73846,3.70737 -15.47454,-23.80007 -30.85012,-47.664485 -46.09891,-71.609857 -5.53216,-3.387562 -12.52634,-5.660372 -18.99448,-3.855814 -2.99931,1.445659 -5.81555,3.338906 -8.51778,5.248901 -3.47515,5.075811 -5.64749,11.63267 -4.01418,17.733261 3.23553,7.111919 7.87292,13.509489 11.82032,20.242699 4.72696,7.63472 9.50659,15.23738 14.17569,22.90761 -4.65175,0.4618 -9.34188,1.53837 -13.15526,4.40031 -4.64818,2.37606 -7.80434,6.76724 -9.58002,11.57133 -0.74307,1.41847 -0.65167,3.9306 -2.81715,3.50703 -4.06134,0.77946 -7.43773,3.51758 -10.8428,5.7176 -4.5046,3.39689 -6.35722,9.10833 -7.46734,14.44234 -6.28983,4.24058 -14.22753,7.96462 -16.75724,15.71798 -2.97009,8.13404 -0.80599,17.41018 4.45728,24.10056 4.49513,6.78355 9.79583,13.01853 16.10689,18.17712 11.11608,9.74771 23.06103,18.66857 33.55556,28.97648 7.30931,8.57898 12.96188,18.47133 19.17111,27.86633 3.68369,5.63415 7.11835,11.50525 10.96053,16.98936 1.80934,0.81617 3.36036,-1.63975 5.00567,-2.26213 24.02369,-15.53533 48.02546,-31.10454 71.99838,-46.71809 1.34754,-1.73214 -1.27417,-3.39331 -1.85383,-5.00079 -7.24083,-11.67084 -15.01934,-23.02458 -21.81457,-34.96298 -3.72245,-6.85377 -3.08611,-14.94534 -1.42741,-22.30778 2.61814,-11.93362 6.08986,-23.77839 10.73978,-35.1089 4.70503,-10.81858 11.65671,-20.58348 16.28238,-31.46765 0.65153,-1.79846 1.59842,-4.00759 -0.30875,-5.42194 -0.33235,-0.4384 -0.66474,-0.87679 -0.99711,-1.31516 z"
         id="path3073-3-4"
         inkscape:connector-curvature="0" />
      <path
         style="fill:#f7bf94;fill-opacity:1"
         d="m 111.20469,218.09941 c -6.28827,-13.49468 -6.22103,-27.39423 0.18355,-37.94811 3.39334,-5.59176 5.9358,-8.35211 11.36232,-12.33607 3.78678,-2.78014 4.48607,-3.52919 5.50354,-5.89522 3.05413,-7.10216 9.00252,-13.75994 16.16641,-18.09442 3.75787,-2.27367 4.48252,-2.94925 6.94906,-6.47861 1.51452,-2.16714 4.09537,-5.14841 5.73521,-6.62508 l 2.98152,-2.68482 -8.05606,-13.25264 c -7.75455,-12.75664 -8.09226,-13.4135 -9.02337,-17.549704 -0.53202,-2.363365 -1.00769,-5.935301 -1.05702,-7.937655 -0.13401,-5.438175 2.50144,-15.132234 5.4068,-19.888014 6.14148,-10.052965 16.85327,-16.481153 28.5417,-17.127985 5.62335,-0.311195 16.11581,2.344199 20.9148,5.293043 7.08662,4.354514 8.34449,5.974612 25.05281,32.267266 8.17663,12.866969 14.95699,23.337069 15.06746,23.266859 0.11046,-0.0701 1.79467,-1.80634 3.74266,-3.85812 5.36322,-5.6489 14.71845,-11.44001 21.06452,-13.039417 13.19158,-3.324682 26.43897,1.778145 36.85079,14.194777 6.3547,7.57832 8.29815,13.81285 6.67814,21.4232 -1.13006,5.30863 -3.83158,11.04417 -10.60485,22.51505 -6.28719,10.64763 -8.67231,16.24797 -13.26207,31.13984 -3.08932,10.02356 -4.34047,15.89568 -4.57526,21.47359 l -0.10135,2.40825 12.79649,20.66378 12.79647,20.6638 0.26955,3.32205 c 0.34237,4.21904 -0.51247,8.05436 -2.61415,11.72865 l -1.65485,2.89314 -42.217,26.82785 -42.217,26.82783 -3.32205,0.26956 c -4.21905,0.34235 -8.05436,-0.51249 -11.72867,-2.61416 l -2.89314,-1.65484 -14.21291,-21.77268 -14.21293,-21.77267 -5.51428,-4.86663 c -3.03284,-2.67667 -9.53396,-8.03787 -14.44692,-11.91382 -19.26205,-15.19625 -30.69816,-27.73916 -36.3499,-39.86787 z m 29.30701,9.94194 c 2.41997,2.37695 11.06844,9.77417 19.21883,16.43828 17.01103,13.90894 20.53482,17.25872 25.68589,24.41745 l 24.60711,38.03843 37.90663,-24.49222 37.90663,-24.49222 -22.40977,-35.27944 c -2.50531,-3.94409 -4.26743,-9.18224 -4.60664,-13.61334 -0.53277,-6.95946 2.59181,-21.07491 8.55439,-38.64492 3.20376,-9.4406 6.04511,-15.42925 12.75736,-26.88837 3.37926,-5.76906 6.57311,-11.96487 7.09743,-13.76849 l 0.95334,-3.27928 -2.57303,-3.41972 c -5.75417,-7.64765 -13.1407,-11.11726 -19.66475,-9.23693 -3.78804,1.09178 -7.97201,3.7187 -11.63315,7.30391 -3.03413,2.97121 -7.75734,10.02766 -9.59783,14.33903 -1.5621,3.65924 -4.75833,8.93327 -6.39156,10.54658 l -1.32713,1.31093 -23.26766,-36.32564 -23.26766,-36.325651 -2.42567,-1.371194 c -3.52036,-1.989975 -8.62409,-3.184809 -12.30314,-2.880285 -2.73099,0.226058 -3.8085,0.646567 -7.26553,2.835413 -3.30392,2.092225 -4.34977,3.047332 -5.62234,5.136398 -1.99817,3.280216 -3.17759,8.571749 -2.76158,12.390062 0.32506,2.98352 0.34304,3.015406 13.9041,24.659107 l 13.5786,21.67172 -2.99817,0.29195 c -10.49679,1.02217 -18.05919,6.78274 -21.12604,16.09253 l -0.98061,2.97666 -2.10819,0.1399 c -1.6475,0.10933 -3.20273,0.83545 -7.11698,3.32287 -4.51454,2.86888 -5.21657,3.50565 -7.11434,6.45326 -1.27912,1.98668 -2.35224,4.63673 -2.73407,6.75167 l -0.62852,3.4814 -4.70415,2.76748 c -8.07913,4.75299 -11.97058,9.4749 -13.13811,15.94176 -0.69642,3.85737 -0.18889,8.67504 1.33757,12.69682 1.69773,4.47308 9.29952,15.14361 14.25835,20.01427 z"
         id="path3049-6-4"
         inkscape:connector-curvature="0"
         sodipodi:nodetypes="ssssssscssssssssssssssscccsscccsscccsssssscccssssscssssscccsssssscsscsssscssss" />
    </g>
    <g
       transform="translate(14.978487,-28.156625)"
       id="g4297">
      <path
         style="fill:#ffffff;fill-opacity:1;fill-rule:nonzero;stroke:#000000;stroke-width:0.04427398;stroke-linecap:butt;stroke-linejoin:miter;stroke-miterlimit:4;stroke-opacity:1;stroke-dasharray:none"
         d="m 208.43908,174.65341 c -6.14406,-4.14794 -14.40061,-6.97453 -21.50813,-3.58941 -5.23339,2.76218 -8.60667,8.05257 -11.1526,13.2218 -3.22298,7.5527 -3.61257,15.84207 -5.18621,23.78527 -0.33701,1.50116 -0.70254,3.01635 -1.33042,4.41292 -22.58399,-17.20083 -45.09645,-34.49557 -67.51678,-51.90921 -6.3497,-1.32728 -13.700774,-1.11267 -19.183765,2.76419 -2.337511,2.37105 -4.351935,5.10192 -6.253377,7.81018 -1.563391,5.94948 -1.401408,12.85493 2.190453,18.04949 5.441031,5.60743 11.961579,10.07024 17.945419,15.0814 7.02141,5.59759 14.08162,11.14725 21.06049,16.79775 -4.22471,2.00096 -8.27859,4.59372 -10.90581,8.57244 -3.57688,3.80226 -5.0704,8.99968 -5.12502,14.12114 -0.22213,1.58583 0.7097,3.92054 -1.47197,4.25075 -3.56183,2.1013 -5.81926,5.81631 -8.28486,9.03429 -3.097998,4.71515 -2.919584,10.7169 -2.169087,16.11327 -4.494962,6.11063 -10.715491,12.28967 -10.487183,20.44209 -0.0582,8.65913 5.102582,16.66516 12.31106,21.19297 6.51654,4.87416 13.60694,8.96055 21.28632,11.69324 13.74893,5.43619 27.99996,9.81474 41.35223,15.98767 9.77091,5.61732 18.42397,13.02911 27.43375,19.78518 5.3655,4.06504 10.57629,8.43705 16.04052,12.30745 1.97849,0.15937 2.61213,-2.67536 3.95185,-3.81534 17.39092,-22.71651 34.7498,-45.45754 52.06659,-68.23062 0.68571,-2.0847 -2.34222,-2.76624 -3.42924,-4.08472 -10.74737,-8.55173 -21.89427,-16.62386 -32.31213,-25.57756 -5.81261,-5.20041 -7.93763,-13.03385 -8.85448,-20.52492 -1.55242,-12.11842 -2.27118,-24.44054 -1.70738,-36.6751 0.78805,-11.77106 4.04634,-23.30634 4.73758,-35.11245 0.008,-1.91282 0.15586,-4.31178 -2.11614,-5.00147 -0.46055,-0.30091 -0.92113,-0.6018 -1.38168,-0.90269 z"
         id="path3073-3"
         inkscape:connector-curvature="0" />
      <path
         style="fill:#f19148;fill-opacity:1"
         d="M 74.954798,323.23302 C 64.490351,312.64321 59.874075,299.53246 62.351579,287.43846 c 1.312653,-6.40778 2.77735,-9.86295 6.545801,-15.4413 2.629711,-3.89274 3.035999,-4.83349 3.197491,-7.40396 0.484741,-7.71579 3.844387,-15.98756 9.130771,-22.48088 2.773007,-3.40611 3.227908,-4.28622 4.362216,-8.43995 0.696494,-2.55053 2.122965,-6.22666 3.169923,-8.1692 l 1.903559,-3.53188 -12.047556,-9.76673 c -11.596652,-9.40119 -12.135803,-9.90601 -14.405096,-13.48727 -1.296642,-2.04628 -2.94711,-5.24955 -3.667702,-7.1184 -1.957064,-5.07559 -2.739187,-15.09101 -1.604574,-20.54731 2.398408,-11.53376 10.320668,-21.19304 21.108986,-25.73728 5.190295,-2.18625 15.964222,-3.21839 21.475852,-2.05738 8.13896,1.71444 9.86884,2.81646 34.45376,21.94899 12.03124,9.36298 21.94077,16.9391 22.02115,16.8358 0.0804,-0.10325 1.08176,-2.30511 2.22525,-4.89294 3.1483,-7.12478 10.00769,-15.72746 15.44481,-19.37004 11.30216,-7.57183 25.49417,-7.22692 39.4785,0.95949 8.53513,4.99646 12.46412,10.21272 13.50087,17.92421 0.72318,5.37917 0.11037,11.68942 -2.40557,24.77101 -2.3354,12.14278 -2.6958,18.21917 -2.00395,33.78693 0.46568,10.47849 1.26455,16.42903 2.92139,21.76037 l 0.71536,2.30178 19.00637,15.14925 19.00636,15.14927 1.37226,3.03737 c 1.74281,3.85747 2.22912,7.7567 1.48716,11.92407 l -0.5842,3.28138 -30.72027,39.47497 -30.72028,39.47496 -3.03736,1.37226 c -3.85749,1.7428 -7.75671,2.22911 -11.92409,1.48717 l -3.28138,-0.5842 -20.71344,-15.71654 -20.71346,-15.71653 -6.83082,-2.72603 c -3.75695,-1.49932 -11.68351,-4.35881 -17.61459,-6.35444 C 99.35136,340.71135 84.360026,332.7509 74.954826,323.23301 z m 30.943302,-0.50529 c 3.07895,1.42345 13.71298,5.47714 23.63118,9.00819 20.70071,7.36983 25.14657,9.3377 32.40707,14.34429 l 35.97707,27.5333 27.44787,-35.8245 27.44788,-35.82451 -32.97913,-25.67516 c -3.68692,-2.87037 -7.10971,-7.20949 -8.92095,-11.26769 -2.84472,-6.37382 -4.65482,-20.71719 -4.95566,-39.26893 -0.16165,-9.9681 0.49762,-16.56374 2.96005,-29.61373 1.23971,-6.56998 2.16115,-13.47937 2.04764,-15.35422 l -0.20636,-3.4088 -3.57415,-2.35382 c -7.993,-5.26393 -16.11644,-6.04415 -21.62657,-2.07713 -3.19933,2.30337 -6.25464,6.18557 -8.49501,10.79408 -1.85668,3.81927 -3.92845,12.05395 -4.20998,16.73327 -0.23894,3.97153 -1.47297,10.01376 -2.46769,12.08275 l -0.8083,1.68121 -34.13917,-26.37146 -34.13917,-26.37146 -2.74571,-0.47449 c -3.98481,-0.6886 -9.192861,-0.0954 -12.554611,1.42998 -2.495455,1.13231 -3.368495,1.89104 -5.886786,5.11599 -2.406644,3.08242 -3.069887,4.33388 -3.564839,6.72943 -0.777161,3.76145 -0.106213,9.14115 1.571026,12.5965 1.310551,2.69991 1.338219,2.72388 21.39444,18.53844 l 20.08217,15.83503 -2.72486,1.28431 c -9.53987,4.49647 -14.72137,12.4668 -14.47484,22.26562 l 0.0788,3.13304 -1.93802,0.8415 c -1.51452,0.65761 -2.73449,1.86495 -5.58279,5.52497 -3.28512,4.22132 -3.73178,5.05726 -4.52639,8.47173 -0.53558,2.30135 -0.65386,5.15798 -0.30136,7.278 l 0.58026,3.48978 -3.497792,4.18966 c -6.007289,7.19554 -8.081832,12.95193 -7.003995,19.43435 0.642912,3.86665 2.742787,8.2322 5.534155,11.50529 3.104574,3.64037 13.855062,11.12867 20.164212,14.04548 z"
         id="path3049-6"
         inkscape:connector-curvature="0"
         sodipodi:nodetypes="ssssssscssssssssssssssscccsscccsscccsssssscccssssscssssscccsssssscsscsssscssss" />
    </g>
    <g
       id="g4263">
      <path
         style="fill:#ffffff;fill-opacity:1;fill-rule:nonzero;stroke:#000000;stroke-width:0.04427398;stroke-linecap:butt;stroke-linejoin:miter;stroke-miterlimit:4;stroke-opacity:1;stroke-dasharray:none"
         d="m 140.92884,248.68231 c -7.39626,0.49994 -15.64815,3.34009 -19.17829,10.37671 -2.43368,5.394 -1.84668,11.64081 -0.68114,17.28388 2.09503,7.93988 6.87856,14.72097 10.51507,21.95607 0.65599,1.39167 1.29808,2.81191 1.66027,4.29968 -28.38692,0.29558 -56.775066,0.4731 -85.16355,0.50021 -5.826235,2.85225 -11.495756,7.53636 -13.441835,13.96333 -0.388519,3.3068 -0.301079,6.69913 -0.138356,10.00422 2.420119,5.6554 6.788995,11.00557 12.813912,12.89905 7.737817,1.08363 15.624604,0.60094 23.424588,0.88064 8.978982,0.10525 17.959157,0.14885 26.937066,0.322 -2.105173,4.17377 -3.71205,8.70965 -3.341839,13.46312 -0.487625,5.19744 1.525765,10.21642 4.628055,14.29173 0.798637,1.38792 2.967919,2.65815 1.448979,4.25864 -1.520403,3.84583 -1.020315,8.16407 -0.989783,12.21792 0.450983,5.62378 4.277803,10.25067 8.184303,14.04847 0.20556,7.58302 -0.90865,16.27981 4.2784,22.57334 5.27215,6.86938 14.26193,10.01804 22.73152,9.16417 8.13625,-0.15559 16.24156,-1.28533 23.9803,-3.84509 14.1891,-4.15389 28.12488,-9.4508 42.45342,-12.77966 11.16096,-1.56779 22.54182,-1.03289 33.80148,-1.23457 6.73093,-0.0872 13.52831,0.16285 20.21762,-0.1386 1.65927,-1.08934 0.41835,-3.71562 0.77551,-5.43806 -0.22694,-28.60826 -0.49423,-57.21619 -0.81441,-85.82356 -0.73919,-2.06634 -3.54737,-0.74458 -5.21496,-1.1175 -13.73376,-0.14828 -27.48827,0.32731 -41.20886,-0.34057 -7.78109,-0.53421 -14.2691,-5.41113 -19.59336,-10.75985 -8.66778,-8.61021 -16.80275,-17.89317 -23.87177,-27.89474 -6.60739,-9.7735 -11.12051,-20.87804 -17.82582,-30.61975 -1.16863,-1.51435 -2.52511,-3.4985 -4.74172,-2.64743 -0.54827,0.0454 -1.09653,0.0908 -1.6448,0.1362 z"
         id="path3073"
         inkscape:connector-curvature="0" />
      <path
         style="fill:#ed7113;fill-opacity:1;stroke-width:2;stroke-miterlimit:4;stroke-dasharray:none"
         d="m 126.83692,447.91929 c -14.76218,-1.93047 -26.45735,-9.44211 -31.929802,-20.50807 -2.899457,-5.86307 -3.865574,-9.4894 -4.31758,-16.20616 -0.315426,-4.68715 -0.572574,-5.6791 -2.023801,-7.80684 -4.356166,-6.38687 -6.784977,-14.97817 -6.600983,-23.34926 0.09652,-4.39111 -0.08502,-5.36505 -1.740896,-9.33976 -1.016759,-2.44059 -2.14875,-6.21781 -2.515535,-8.39382 l -0.666878,-3.95639 -15.506054,-0.30862 c -14.9257,-0.29707 -15.661215,-0.36433 -19.651568,-1.79689 -2.280028,-0.81855 -5.549872,-2.33287 -7.266318,-3.36517 -4.661701,-2.80362 -11.429994,-10.22727 -13.885607,-15.23011 -5.190789,-10.57525 -4.871011,-23.06369 0.852054,-33.27568 2.753382,-4.91301 10.622077,-12.34446 15.684798,-14.81323 7.476063,-3.64561 9.518083,-3.83832 40.670473,-3.83832 15.24521,0 27.718557,-0.10709 27.718557,-0.23797 0,-0.13089 -0.56201,-2.48353 -1.24891,-5.22809 -1.89117,-7.55632 -1.76127,-18.55815 0.29248,-24.77207 4.26916,-12.91688 15.68108,-21.36083 31.74502,-23.48886 9.8044,-1.2988 16.10869,0.40475 21.66296,5.8538 3.87439,3.801 7.26627,9.15729 13.31491,21.02625 5.61453,11.01716 9.06199,16.03389 19.16906,27.89479 6.80297,7.98344 11.088,12.18886 15.66983,15.3787 l 1.9782,1.3772 24.30354,0.2826 24.30354,0.2826 2.9484,1.55425 c 3.74449,1.9739 6.52302,4.75243 8.49692,8.49692 l 1.55425,2.9484 0,50.02008 0,50.02007 -1.55425,2.9484 c -1.9739,3.74449 -4.75243,6.52302 -8.49692,8.49692 l -2.9484,1.55425 -25.99914,0.31814 -25.99913,0.31814 -7.06498,2.04387 c -3.88575,1.12413 -11.89744,3.73564 -17.80376,5.80336 -23.1567,8.10681 -39.87658,11.03162 -53.14448,9.29657 z m 24.10958,-19.40288 c 3.30407,-0.76761 14.18587,-4.0995 24.18177,-7.4042 20.86288,-6.89738 25.58006,-8.07484 34.38476,-8.58283 l 45.3023,-0.36685 -0.34057,-45.12942 -0.34057,-45.12943 -41.79517,-0.008 c -4.67251,-0.001 -10.03863,-1.32309 -13.96041,-3.41338 -6.15955,-3.28299 -16.39716,-13.49084 -28.02829,-27.94678 -6.24957,-7.76738 -9.78005,-13.37743 -15.85151,-25.18857 -3.05666,-5.94629 -6.57295,-11.96498 -7.81398,-13.37486 l -2.25641,-2.56342 -4.26626,0.3375 c -9.54083,0.75477 -16.43088,5.12811 -18.343,11.64291 -1.11022,3.78268 -1.13713,8.72289 -0.0748,13.73579 0.88039,4.15439 4.30277,11.92546 6.95445,15.7912 2.25058,3.28101 4.9876,8.80732 5.47327,11.05104 l 0.39463,1.82321 -43.138287,0.15499 -43.138303,0.15498 -2.458278,1.31185 c -3.567658,1.90386 -7.313443,5.57057 -9.029641,8.83903 -1.273952,2.42621 -1.496962,3.56118 -1.503716,7.65288 -0.0064,3.91065 0.238988,5.30561 1.319631,7.50012 1.6968,3.44578 5.530299,7.27927 8.976077,8.97608 2.692445,1.32583 2.728997,1.32776 28.26966,1.49062 l 25.573722,0.16308 -1.361637,2.68706 c -4.76715,9.40752 -3.961245,18.87984 2.251342,26.46148 l 1.98639,2.42413 -1.01264,1.85435 c -0.79135,1.44913 -1.01263,3.15119 -1.01263,7.78893 0,5.34898 0.16092,6.28302 1.63084,9.46565 0.99073,2.14512 2.65181,4.47216 4.23204,5.92877 l 2.60119,2.39769 -0.18727,5.45461 c -0.32163,9.36803 1.57651,15.18496 6.40836,19.63881 2.88211,2.65664 7.22044,4.8122 11.43353,5.68092 4.68584,0.96621 17.76894,0.27334 24.53941,-1.29957 z"
         id="path3049"
         inkscape:connector-curvature="0"
         sodipodi:nodetypes="ssssssscssssssssssssssscccsscccsscccsssssscccssssscssssscccsssssscsscsssscssss" />
    </g>
  </g>
</svg>
